name Run_50002_GRF.mot
datacolumns 19
datarows 18
range 1.143 1.16
endheader
time	     ground_force_vx	     ground_force_vy	     ground_force_vz	     ground_force_px	     ground_force_py	     ground_force_pz	   l_ground_force_vx	   l_ground_force_vy	   l_ground_force_vz	   l_ground_force_px	   l_ground_force_py	   l_ground_force_pz	     ground_torque_x	     ground_torque_y	     ground_torque_z	   l_ground_torque_x	   l_ground_torque_y	   l_ground_torque_z	
1.143	          0.00000000	          0.00000000	          0.00000000	          0.00000000	          0.00000000	          0.00000000	          0.00000000	          0.00000000	          0.00000000	          0.00000000	          0.00000000	          0.00000000	          0.00000000	          0.00000000	          0.00000000	          0.00000000	          0.00000000	          0.00000000	
1.144	          0.01240500	         11.11282400	         -8.67759900	          1.21079900	          0.00000000	         -0.27912600	          0.00000000	          0.00000000	          0.00000000	          0.00000000	          0.00000000	          0.00000000	         -0.00000000	          0.27040300	         -0.00000000	          0.00000000	          0.00000000	          0.00000000	
1.145	         -0.27546500	         12.66866100	         -9.69306500	          1.21096800	          0.00000000	         -0.28359300	          0.00000000	          0.00000000	          0.00000000	          0.00000000	          0.00000000	          0.00000000	         -0.00000000	          0.60356900	         -0.00000000	          0.00000000	          0.00000000	          0.00000000	
1.146	         -0.67078200	         14.48976000	        -10.79036500	          1.21136000	          0.00000000	         -0.28795300	          0.00000000	          0.00000000	          0.00000000	          0.00000000	          0.00000000	          0.00000000	         -0.00000000	          0.95077900	         -0.00000000	          0.00000000	          0.00000000	          0.00000000	
1.147	         -1.18482600	         16.62130200	        -11.97255200	          1.21179900	          0.00000000	         -0.29215100	          0.00000000	          0.00000000	          0.00000000	          0.00000000	          0.00000000	          0.00000000	         -0.00000000	          1.31132100	         -0.00000000	          0.00000000	          0.00000000	          0.00000000	
1.148	         -1.82906700	         19.11473700	        -13.24232300	          1.21214300	          0.00000000	         -0.29613700	          0.00000000	          0.00000000	          0.00000000	          0.00000000	          0.00000000	          0.00000000	         -0.00000000	          1.68441000	         -0.00000000	          0.00000000	          0.00000000	          0.00000000	
1.149	         -2.61525600	         22.02811200	        -14.60193900	          1.21228800	          0.00000000	         -0.29987100	          0.00000000	          0.00000000	          0.00000000	          0.00000000	          0.00000000	          0.00000000	         -0.00000000	          2.06918200	         -0.00000000	          0.00000000	          0.00000000	          0.00000000	
1.15	         -3.55554900	         25.42634600	        -16.05314300	          1.21217100	          0.00000000	         -0.30332300	          0.00000000	          0.00000000	          0.00000000	          0.00000000	          0.00000000	          0.00000000	         -0.00000000	          2.46469800	         -0.00000000	          0.00000000	          0.00000000	          0.00000000	
1.151	         -4.66261900	         29.38137400	        -17.59706300	          1.21176500	          0.00000000	         -0.30647300	          0.00000000	          0.00000000	          0.00000000	          0.00000000	          0.00000000	          0.00000000	         -0.00000000	          2.86994900	         -0.00000000	          0.00000000	          0.00000000	          0.00000000	
1.152	         -5.94975800	         33.97222100	        -19.23412300	          1.21107500	          0.00000000	         -0.30931400	          0.00000000	          0.00000000	          0.00000000	          0.00000000	          0.00000000	          0.00000000	         -0.00000000	          3.28385700	         -0.00000000	          0.00000000	          0.00000000	          0.00000000	
1.153	         -7.43094100	         39.28488500	        -20.96394200	          1.21013000	          0.00000000	         -0.31184800	          0.00000000	          0.00000000	          0.00000000	          0.00000000	          0.00000000	          0.00000000	         -0.00000000	          3.70527800	         -0.00000000	          0.00000000	          0.00000000	          0.00000000	
1.154	         -9.12082200	         45.41208300	        -22.78522500	          1.20897200	          0.00000000	         -0.31408500	          0.00000000	          0.00000000	          0.00000000	          0.00000000	          0.00000000	          0.00000000	         -0.00000000	          4.13300800	         -0.00000000	          0.00000000	          0.00000000	          0.00000000	
1.155	        -11.03466400	         52.45276300	        -24.69566900	          1.20765300	          0.00000000	         -0.31604100	          0.00000000	          0.00000000	          0.00000000	          0.00000000	          0.00000000	          0.00000000	         -0.00000000	          4.56578400	         -0.00000000	          0.00000000	          0.00000000	          0.00000000	
1.156	        -13.18815700	         60.51137200	        -26.69185800	          1.20622700	          0.00000000	         -0.31773600	          0.00000000	          0.00000000	          0.00000000	          0.00000000	          0.00000000	          0.00000000	         -0.00000000	          5.00229300	         -0.00000000	          0.00000000	          0.00000000	          0.00000000	
1.157	        -15.59712900	         69.69686900	        -28.76916900	          1.20474300	          0.00000000	         -0.31919500	          0.00000000	          0.00000000	          0.00000000	          0.00000000	          0.00000000	          0.00000000	         -0.00000000	          5.44117500	         -0.00000000	          0.00000000	          0.00000000	          0.00000000	
1.158	        -18.27714200	         80.12139900	        -30.92167700	          1.20324700	          0.00000000	         -0.32044100	          0.00000000	          0.00000000	          0.00000000	          0.00000000	          0.00000000	          0.00000000	         -0.00000000	          5.88103200	         -0.00000000	          0.00000000	          0.00000000	          0.00000000	
1.159	        -21.24294500	         91.89861300	        -33.14207800	          1.20177600	          0.00000000	         -0.32150000	          0.00000000	          0.00000000	          0.00000000	          0.00000000	          0.00000000	          0.00000000	         -0.00000000	          6.32042800	         -0.00000000	          0.00000000	          0.00000000	          0.00000000	
1.16	        -24.50782200	        105.14167800	        -35.42161600	          1.20036000	          0.00000000	         -0.32239400	          0.00000000	          0.00000000	          0.00000000	          0.00000000	          0.00000000	          0.00000000	         -0.00000000	          6.75790400	         -0.00000000	          0.00000000	          0.00000000	          0.00000000	
